PathFileType	4	(X/Y/Z)	G:\マイドライブ\biomec\experimentalData\240725\static1.trc
DataRate	CameraRate	NumFrames	NumMarkers	Units	OrigDataRate	OrigDataStartFrame	OrigNumFrames
200.00	200.00	       6	52	mm	200.00	522	       834
Frame#	Time	handR			wrRI			wrRO			elbRI			elbRO			shRF			shRU			shRB			handL			wrLI			wrLO			elbLI			elbLO			shLF			shLU			shLB			toeR			baRI			baRO			heelR			anRI			anRO			knRI			knRO			troR			toeL			baLI			baLO			heelL			anLI			anLO			knLI			knLO			troL			head			earR			earL			clav			c7			ribR			ribL			xiph			ASISR			ASISL			PSISR			PSISL			t8			t11			L1			L3			LS			COX			
		X1	Y1	Z1	X2	Y2	Z2	X3	Y3	Z3	X4	Y4	Z4	X5	Y5	Z5	X6	Y6	Z6	X7	Y7	Z7	X8	Y8	Z8	X9	Y9	Z9	X10	Y10	Z10	X11	Y11	Z11	X12	Y12	Z12	X13	Y13	Z13	X14	Y14	Z14	X15	Y15	Z15	X16	Y16	Z16	X17	Y17	Z17	X18	Y18	Z18	X19	Y19	Z19	X20	Y20	Z20	X21	Y21	Z21	X22	Y22	Z22	X23	Y23	Z23	X24	Y24	Z24	X25	Y25	Z25	X26	Y26	Z26	X27	Y27	Z27	X28	Y28	Z28	X29	Y29	Z29	X30	Y30	Z30	X31	Y31	Z31	X32	Y32	Z32	X33	Y33	Z33	X34	Y34	Z34	X35	Y35	Z35	X36	Y36	Z36	X37	Y37	Z37	X38	Y38	Z38	X39	Y39	Z39	X40	Y40	Z40	X41	Y41	Z41	X42	Y42	Z42	X43	Y43	Z43	X44	Y44	Z44	X45	Y45	Z45	X46	Y46	Z46	X47	Y47	Z47	X48	Y48	Z48	X49	Y49	Z49	X50	Y50	Z50	X51	Y51	Z51	X52	Y52	Z52	

522	2.605	484.21658	291.69287	994.45459	485.00250	380.91843	1023.74091	525.81036	347.21829	1066.82349	568.06793	573.52869	1158.25159	509.74234	549.88605	1188.82690	602.91663	719.93890	1417.07886	541.31415	699.79523	1437.06799	497.41782	710.16968	1392.78174	502.04282	1461.79895	964.21643	497.76068	1373.08228	1000.71271	533.55933	1422.88965	1041.95496	544.15594	1195.02698	1148.11255	497.98941	1229.86536	1184.59436	600.06799	1045.54285	1404.75903	541.53351	1068.80872	1425.62549	490.85214	1043.12964	1379.01184	725.69574	730.27362	51.45013	643.40710	772.70331	48.20338	624.74146	651.86359	43.97729	438.67047	729.41284	40.18953	521.45068	770.56476	112.91618	506.59872	677.16095	102.05792	527.20374	795.40680	468.44589	548.42950	691.40826	476.36151	593.71375	707.19061	868.95703	725.70288	1024.84473	53.08704	649.83679	978.25629	50.79360	627.01483	1092.21301	47.41109	438.06125	1031.79346	38.08155	527.49969	985.67090	130.12404	504.12976	1073.34119	104.87719	518.44812	959.91376	471.13498	524.25586	1066.87000	483.96524	571.00604	1051.91956	853.71814	528.89447	886.12689	1702.84802	635.02911	802.49365	1568.46497	640.17627	960.53656	1568.74365	648.03223	886.62506	1393.96997	526.91235	888.91705	1471.43701	631.39178	777.07446	1095.50708	627.04803	998.46838	1093.06885	677.95251	885.90753	1234.70349	654.25085	777.67725	950.69763	643.17780	998.43793	958.75537	480.48370	818.31219	999.37970	477.28690	941.87482	1000.37708	462.73105	886.70111	1261.93750	477.64325	886.85895	1137.75208	488.41422	888.56879	1080.35315	484.68439	883.89435	1034.11780	467.62048	881.42664	996.13141	437.34442	878.83014	894.18463	
523	2.610	484.24393	291.64658	994.52362	485.04312	380.84280	1023.79449	525.84766	347.17249	1066.90674	568.07697	573.51178	1158.27991	509.76663	549.87677	1188.89404	602.96210	719.96521	1417.07507	541.34253	699.81787	1437.08923	497.46426	710.17633	1392.79431	502.06409	1461.79956	964.16730	497.79819	1373.05554	1000.66272	533.60620	1422.87744	1041.91504	544.17468	1195.02600	1148.08826	497.97565	1229.85681	1184.55322	600.06903	1045.56091	1404.74414	541.56567	1068.83887	1425.63000	490.89249	1043.16125	1378.99805	725.69165	730.26318	51.44774	643.42853	772.71094	48.18620	624.74957	651.84503	43.95822	438.67685	729.40924	40.16842	521.48120	770.56256	112.90010	506.58759	677.16583	102.05009	527.21271	795.38538	468.43216	548.41473	691.40875	476.36795	593.71704	707.17804	868.95001	725.69885	1024.85144	53.08792	649.85187	978.25696	50.79953	627.01239	1092.21814	47.43100	438.03925	1031.78369	38.09716	527.65729	985.94739	129.73839	504.10349	1073.35730	104.85992	518.45410	959.89996	471.12589	524.21594	1066.86365	483.95743	571.00476	1051.91772	853.70538	528.86908	886.18713	1702.84912	635.04181	802.54657	1568.46814	640.18707	960.55316	1568.76831	648.05212	886.63849	1393.96521	526.98462	888.93549	1471.45349	631.39374	777.08740	1095.49072	627.03528	998.44666	1093.04712	677.99091	885.90833	1234.68848	654.26385	777.66376	950.70911	643.18292	998.42828	958.74438	480.46735	818.31512	999.38165	477.27582	941.83740	1000.37360	462.77051	886.71759	1261.92761	477.65793	886.85614	1137.76294	488.42557	888.55554	1080.34644	484.68951	883.90015	1034.10706	467.63599	881.40204	996.14178	437.35037	878.79321	894.17596	
524	2.615	484.26251	291.61707	994.59375	485.05597	380.80051	1023.86536	525.87415	347.14023	1066.97791	568.07928	573.47247	1158.28809	509.76361	549.85345	1188.94312	603.00183	719.98163	1417.08887	541.35596	699.82880	1437.09399	497.50290	710.18750	1392.82068	502.09927	1461.79773	964.13483	497.83847	1373.02869	1000.62488	533.65179	1422.86279	1041.87366	544.13446	1195.00012	1148.05872	497.98859	1229.85107	1184.49854	600.09308	1045.59082	1404.68933	541.56592	1068.86914	1425.60974	490.89163	1043.17273	1378.99573	725.68939	730.27130	51.44511	643.37537	772.69818	48.21110	624.73077	651.85565	43.96113	438.67169	729.40997	40.18483	521.43408	770.55896	112.88840	506.59531	677.16870	102.03291	527.20929	795.38678	468.45587	548.39893	691.39801	476.38565	593.70490	707.17371	868.96936	725.70758	1024.84985	53.09748	649.83826	978.24731	50.80537	627.06085	1092.21191	47.40828	438.04050	1031.80286	38.09365	527.48468	985.66913	130.12965	504.14459	1073.34399	104.87041	518.42566	959.89685	471.12210	524.23480	1066.86401	483.96109	570.98224	1051.89502	853.69946	528.92096	886.24481	1702.82031	635.07312	802.56879	1568.46960	640.21600	960.58795	1568.72742	648.05493	886.67126	1393.94141	527.00824	888.97699	1471.42603	631.41589	777.06360	1095.47986	627.03857	998.42188	1093.05017	677.98962	885.91681	1234.68481	654.26575	777.64069	950.69684	643.17749	998.42664	958.74878	480.46213	818.29468	999.38623	477.25861	941.82758	1000.36285	462.76074	886.70245	1261.94568	477.66748	886.85510	1137.74524	488.44165	888.53986	1080.33142	484.67200	883.88922	1034.09753	467.61478	881.40228	996.13623	437.32419	878.79694	894.18225	
525	2.620	484.29709	291.57935	994.68390	485.07190	380.76270	1023.94653	525.92462	347.10083	1067.06189	568.08844	573.46722	1158.31396	509.79465	549.83539	1188.98181	603.07880	720.95123	1417.20776	541.39832	699.93872	1437.18384	497.52332	710.21100	1392.83240	502.13626	1461.79529	964.08063	497.84976	1373.02478	1000.59100	533.67493	1422.85254	1041.81104	544.17889	1194.99731	1148.04236	497.98962	1229.84546	1184.49036	600.16162	1045.60547	1404.70215	541.58276	1068.91638	1425.58777	490.91641	1043.18701	1378.98950	725.68829	730.26923	51.48129	643.41516	772.70233	48.18497	624.72766	651.84912	43.97162	438.67624	729.40979	40.17960	521.43457	770.55481	112.90244	506.60153	677.16534	102.04712	527.21851	795.36786	468.43762	548.41827	691.40332	476.35791	593.73352	707.15771	868.95020	725.68652	1024.84644	53.08839	650.05157	978.03668	51.04125	627.04950	1092.18274	47.39891	438.04987	1031.79028	38.08960	527.83594	985.61401	130.52634	504.12341	1073.33716	104.89925	518.44312	959.88220	471.11786	524.23663	1066.84485	483.94662	570.99408	1051.87341	853.69965	528.93585	886.30872	1702.81091	635.14111	802.62445	1568.50366	640.24066	960.62701	1568.72681	648.11932	886.69446	1393.92322	527.02020	889.00763	1471.43591	631.39111	777.06873	1095.48230	627.02863	998.40851	1093.02991	678.00256	885.92816	1234.65649	654.26416	777.64899	950.70361	643.19092	998.39166	958.72815	480.44824	818.26410	999.40594	477.26312	941.80872	1000.36896	462.77573	886.73407	1261.95068	477.64914	886.85315	1137.75537	488.42322	888.53851	1080.35669	484.66437	883.86847	1034.12122	467.60245	881.40021	996.12445	437.31808	878.77777	894.17737	
526	2.625	484.30933	291.52155	994.76483	485.06625	380.73483	1024.00781	525.93915	347.06284	1067.13684	568.09314	573.46082	1158.32483	509.82840	549.82825	1189.03687	603.06982	720.99237	1417.22888	541.40527	699.96240	1437.21948	497.53113	710.26459	1392.83545	502.19830	1461.81055	964.02429	497.89111	1373.00537	1000.56378	533.72058	1422.83582	1041.76001	544.15729	1194.99475	1147.99866	498.01617	1229.84888	1184.42383	600.19592	1045.63574	1404.70532	541.64374	1068.95886	1425.56824	490.92813	1043.22266	1378.97937	725.66803	730.27594	51.48022	643.41968	772.71576	48.18628	624.72864	651.86298	43.97742	438.68918	729.39539	40.18263	521.42511	770.53693	112.93555	506.58395	677.16791	102.05968	527.20807	795.35767	468.44543	548.41095	691.39441	476.37988	593.71545	707.14978	868.96545	725.68518	1024.85547	53.08320	650.05499	978.01703	51.05664	627.03943	1092.20544	47.40553	438.03445	1031.78528	38.09059	527.84583	985.60748	130.53464	504.11578	1073.35950	104.85265	518.44812	959.88416	471.12363	524.18805	1066.83557	483.96652	571.01343	1051.84863	853.68927	528.95569	886.36694	1702.80298	635.16003	802.65210	1568.50659	640.22101	960.63409	1568.74695	648.11768	886.68701	1393.92004	527.05060	889.05682	1471.44141	631.39630	777.07410	1095.49097	627.00092	998.40271	1093.02246	677.99323	885.92358	1234.65161	654.25909	777.62286	950.70062	643.15765	998.39630	958.74335	480.42346	818.26953	999.39813	477.27032	941.79956	1000.35504	462.80029	886.73035	1261.96204	477.67487	886.85242	1137.76599	488.40973	888.54132	1080.35571	484.63181	883.87683	1034.12573	467.61053	881.37543	996.12665	437.34476	878.76233	894.18353	
527	2.630	484.33429	291.47018	994.84540	485.06882	380.70142	1024.09766	525.96008	347.04825	1067.20801	568.09900	573.46497	1158.35071	509.82178	549.83246	1189.08484	603.09625	721.02118	1417.24744	541.45483	699.99115	1437.22791	497.54181	710.29968	1392.84985	502.22525	1461.81860	963.96558	497.93231	1372.98608	1000.51843	533.76276	1422.81921	1041.70959	544.16949	1194.97095	1147.99304	498.01526	1229.86987	1184.41467	600.20300	1045.66858	1404.68201	541.68500	1068.98059	1425.57019	490.94370	1043.24463	1378.99353	725.66901	730.26459	51.46589	643.44147	772.68445	48.18814	624.73474	651.83453	43.98324	438.67404	729.40826	40.20644	521.42999	770.53662	112.91404	506.58160	677.16028	102.04871	527.20337	795.35510	468.45499	548.41052	691.37054	476.38834	593.74072	707.12311	868.95416	725.69531	1024.85815	53.08003	649.83813	978.24365	50.81210	627.02600	1092.21948	47.40357	438.06216	1031.78125	38.08413	527.47931	985.67261	130.12949	504.09875	1073.34863	104.88416	518.43396	959.87689	471.11618	524.19470	1066.83325	483.96472	570.97894	1051.85291	853.69916	528.98468	886.42090	1702.80103	635.18878	802.70752	1568.50891	640.26355	960.66150	1568.67188	648.13202	886.71014	1393.95605	527.08124	889.07330	1471.43701	631.35901	777.08972	1095.50366	627.01422	998.39508	1092.99976	677.99713	885.91956	1234.62817	654.26654	777.61487	950.69653	643.17694	998.38281	958.70752	480.43066	818.23199	999.41467	477.26199	941.78131	1000.34802	462.78680	886.76227	1261.98523	477.66144	886.85449	1137.77429	488.37943	888.53021	1080.36438	484.66602	883.86261	1034.11401	467.59851	881.35809	996.14679	437.30887	878.74060	894.19220	
